<?xml version="1.0" encoding="utf-8"?>
<!-- Generator: Adobe Illustrator 19.0.0, SVG Export Plug-In . SVG Version: 6.00 Build 0)  -->
<svg version="1.1" id="Layer_1" xmlns="http://www.w3.org/2000/svg" xmlns:xlink="http://www.w3.org/1999/xlink" x="0px" y="0px"
	 viewBox="0 0 96 96" style="enable-background:new 0 0 96 96;" xml:space="preserve">
<style type="text/css">
	.st0{fill:#333333;}
</style>
<g id="XMLID_5_">
	<path id="XMLID_10_" class="st0" d="M42.5,24.2C32,27,24.9,36.1,24.2,46.4c-9.9,9.1-11.6,18.1-3.8,20.2c3,0.8,7,0.4,11.4-0.8
		c5.9,5.7,14.6,8.2,23.1,6c9.1-2.4,15.6-9.5,17.7-18c-6.2,2.9-13.8,4.8-20.9,5.7c-1.3,0.2-2.6,0.3-3.8,0.3c9.8-2.1,19.6-7.6,25-13.8
		l0.2-0.2l0.1-0.1c3.3-3.3,5.8-6.9,6.8-10.3c2.8-9.1-5.4-13.4-18.5-9.7c-0.6,0.2-1.1,0.3-1.7,0.5C54.6,23.5,48.6,22.7,42.5,24.2
		L42.5,24.2z M60.7,26.6c8.9-0.6,13.8,3.6,11.5,11c-0.2,0.5-0.4,1-0.6,1.6C69.5,33.7,65.5,29.3,60.7,26.6z M24.2,48
		c0,2.1,0.2,4.1,0.8,6.2c0.7,2.6,1.8,5,3.2,7.1c-0.6-0.1-1.1-0.1-1.7-0.3C20.7,59.6,20.1,54.3,24.2,48z"/>
</g>
</svg>
